<svg width="64" height="64" viewBox="0 0 64 64" fill="none" xmlns="http://www.w3.org/2000/svg">
  <rect width="64" height="64" rx="16" fill="#123F34"/>
  <path d="M32 9L49 15.5V29.5C49 40.5 42.1 50.1 32 54C21.9 50.1 15 40.5 15 29.5V15.5L32 9Z" fill="#EAF7F1"/>
  <path d="M38.8 22.2C37.3 20.9 35.1 20.1 32.5 20.1C28.2 20.1 25.4 22.2 25.4 25.3C25.4 28.1 27.4 29.4 31.8 30.4C34.5 31 35.5 31.7 35.5 33C35.5 34.2 34.3 35 32.3 35C29.9 35 27.7 34.1 25.9 32.5L23.3 35.7C25.5 37.8 28.6 39 32.1 39C36.9 39 40 36.7 40 33.1C40 29.9 37.8 28.4 33.3 27.3C30.5 26.6 29.8 26.1 29.8 25.1C29.8 24.1 30.7 23.4 32.5 23.4C34.2 23.4 35.8 24.1 37.3 25.3L39.7 22.3L38.8 22.2Z" fill="#167258"/>
</svg>
